<?xml version="1.0" encoding="utf-8"?>
<!-- Generator: Adobe Illustrator 24.0.2, SVG Export Plug-In . SVG Version: 6.00 Build 0)  -->
<svg version="1.1" id="Capa_1" xmlns="http://www.w3.org/2000/svg" xmlns:xlink="http://www.w3.org/1999/xlink" x="0px" y="0px"
	 viewBox="0 0 978.6 1145" style="enable-background:new 0 0 978.6 1145;" xml:space="preserve">
<style type="text/css">
	.st0{stroke:#00165E;stroke-miterlimit:10;}
	.st1{fill:#FFFFFF;}
</style>
<g id="INVERTIDO">
	<rect x="4.6" class="st0" width="974" height="1145"/>
	<g>
		<g>
			<path class="st1" d="M971,970.4c-5.5-12.3-10.6-24.2-16-36c-20.3-44.7-41.2-89.2-61-134.2c-21.7-49.2-43.2-98.5-63.4-148.3
				c-15.9-39.2-29.8-79.1-44.4-118.8c-11.2-30.5-32.2-51.8-60.4-67c-23.3-12.6-46.3-25.8-69.2-39c-20.3-11.7-40.4-23.9-60.6-35.8
				c-4.6-2.8-4.5-3.4-0.4-7c11.7-10.4,23.9-20.3,34.9-31.4c18.2-18.5,29.4-41.4,37.1-66c6.1-19.4,8.8-39.4,8.7-59.6
				c0-36.5-8.5-71-27.8-102.3c-11.1-18-25.9-32.9-42.4-46.1c-14.9-12-31.3-21.4-49.2-28.2c-24-9.1-48.8-12.6-74.4-12
				c-31,0.7-61,5.5-88.7,20.3c-21.8,11.6-40,27.5-54.7,47.4c-15.9,21.6-26.8,45.5-29.7,72.1c-1.8,16.8-1.1,33.9-1.1,50.9
				c0,6.6,1,13.3,2.2,19.8c3.1,18.4,14.4,29.6,32.2,33.2c16.9,3.4,34.1,5.6,51.2,8.1c8,1.1,14.2,5.5,20.2,10.2
				c0.9,0.7,1.1,2.7,0.9,4c-0.6,3.1-1.6,6.1-2.6,9.1c-1.1,3.4-3.8,3.3-6.6,2.8c-12.5-2.6-25.1-5.1-37.5-8.1
				c-16.3-4-32.5-8.4-48.8-12.5c-1.2-0.3-3.5,0.4-4,1.4c-1.6,2.9-4.3,6-1.6,9.6c1.4,1.9,3.1,3.5,4.7,5.1
				c24.9,24.6,49.7,49.2,74.6,73.9c4.2,4.2,4.4,5.2-0.9,8c-21.1,11-42.6,22-64.1,33c-11.6,5.9-23.3,11.5-34.9,17.3
				c-13,6.4-26,12.6-38.9,19.2c-18.8,9.5-32.4,23.6-41,43.2c-17.5,40.3-36.1,80.2-54,120.3c-16.1,36-31.7,72.3-47.9,108.3
				C87.8,788,63.7,840.4,39.8,893.1c-3.9,8.6-8,17.3-10.6,26.4c-6.2,21.6,0.8,40.7,13.2,58.2c7,9.9,17.2,15.3,28.7,18.7
				c31.4,9.4,63.5,13,96.2,12c11.8-0.4,23.6-1.2,35.4-1.9c6.8-0.4,6.8-0.4,6.8-7.3c0-80,0-160,0-240c0-26.7,0-53.3,0-80
				c0-7.5,0.4-7.9,7.9-7.9c189,0,378,0,567,0c7.8,0,8.1,0.4,8.1,8.8c0,107.3,0,214.7,0,322c0,8.5,0,9.1,8.5,9.5
				c11.9,0.5,24,0.5,35.9-0.3c19-1.2,37.9-4.1,55.6-11c16.5-6.4,32.5-14.4,48.6-21.9c5.9-2.8,21.3-6.2,27.7-5.1
				c-5.9,8.9-10.1,18.8-19.8,24.1c-29.8,16.1-56.7,36.2-81.6,59c-22,20.1-43.1,41.2-64.8,61.6c-15.9,14.9-34.2,23.8-56.7,23.1
				c-28-0.8-55.9-1.1-83.9-1.6c-21.1-0.3-42.3-0.4-63.4-0.8c-20.3-0.3-40.6-1-60.9-1.3c-29.5-0.4-59-0.3-88.4-0.7
				c-43-0.5-85.9-1.3-128.9-1.9c-18.5-0.3-37-0.7-55.4-1.1c-12.2-0.2-24.3-0.4-36.5-0.8c-7.9-0.3-15-3.4-21-8.4
				c-17.1-14.3-34.2-28.7-51-43.3c-33.9-29.5-70-55.8-109.9-76.9C14.5,987,2.4,957.9,5,923.7c0.4-5.3,3.1-10.5,5.4-15.4
				c15.4-34.3,31-68.6,46.5-102.9c14-30.9,28.1-61.8,42.2-92.7c16.7-36.7,33.3-73.4,50.2-110c13.5-29.4,27.2-58.6,40.8-87.9
				c3.4-7.4,7.1-14.7,10.2-22.3c8.7-20.9,23.8-35.6,43.6-45.5c31.1-15.6,62.3-30.9,93.6-46.3c8.4-4.1,16.9-7.9,25.3-12
				c1.7-0.8,3.2-2.1,5.9-3.9c-1.6-0.9-2.3-1.3-3.1-1.6c-15.2-7.2-25.6-19.9-36.9-31.7c-8.3-8.6-16.9-17-26.2-24.4
				c-5-4-11.7-7-18.1-8c-12.6-1.9-19.6-9.8-25.1-19.9c-7.9-14.3-11.1-29.8-11.7-46c-0.7-19.6,2-38.7,10.2-56.5
				c4.1-8.8,9.3-17.5,15.8-24.6c9.3-10.2,14.6-21.8,19-34.6c15.8-46.3,43.6-83.3,86.7-107.5c18.1-10.2,37.6-16.8,58-20.8
				c19.4-3.8,38.9-6.1,58.5-5.3C531.1,5.2,565.9,10.1,598,27c23.2,12.3,42.8,28.8,58.6,49.6c9.4,12.4,17.6,25.8,25.9,39.1
				c8.4,13.5,19.2,24.5,31,35c24.4,21.6,34.8,49.1,31.7,81.4c-2.6,27.6-16.1,49.1-38.7,64.6c-13.7,9.3-23.7,21.7-33.3,34.8
				c-12.2,16.7-24.5,33.3-36.8,49.9c-3.8,5.2-3.8,5.4,1.3,8.9c18.7,12.8,37.2,25.9,56.2,38.2c9.9,6.4,20.6,11.5,31.2,16.8
				c27.7,13.7,50.1,33.2,66.8,59.2c14.7,22.9,23.6,48.4,33.7,73.4c22.7,56.1,45.3,112.1,68.4,168c21.6,52.2,43.7,104.1,65.7,156.1
				c5.4,12.9,11.6,25.5,16.4,38.6C979.9,951.1,978.2,961.4,971,970.4z M499.3,1120.3c88.1,0,176.3,0,264.4,0c8.6,0,8.7,0,8.7-8.5
				c0-64.8,0-129.6,0-194.5c0-45.7,0-91.3,0-137c0-6.4-0.4-6.9-6.8-6.8c-11.3,0.2-22.6,0.8-33.9,1c-34.8,0.7-69.6,1.3-104.4,2
				c-33.3,0.6-66.6,1.3-99.9,2c-34.8,0.7-69.6,1.3-104.4,2c-33.3,0.6-66.6,1.4-99.9,2c-29.5,0.5-58.9,0.8-88.4,1.2
				c-7.9,0.1-7.9,0.1-7.9,8.2c0,106.6,0,213.3,0,319.9c0,8.5-0.1,8.5,8.5,8.5C323.4,1120.3,411.3,1120.3,499.3,1120.3z M499.8,693.6
				c-89.1,0-178.3,0-267.4,0c-7.3,0-7.6,0.4-7.6,7.6c0,19.5,0,39,0,58.5c0,6.3,0.4,6.9,6.8,6.7c24.8-0.6,49.6-1.3,74.4-1.7
				c43.1-0.8,86.2-1.4,129.3-2c29.5-0.4,58.9-0.7,88.4-1.1c10.3-0.1,20.6-0.5,30.9-0.7c32.1-0.7,64.2-1.6,96.4-2.2
				c37.1-0.6,74.3-0.9,111.4-1.3c4,0,6-1,6.3-5.5c1.4-17.9,3-35.8,4.7-53.7c0.3-3.3-1-4.6-4.2-4.6c-1.7,0-3.3,0-5,0
				C676.1,693.6,588,693.6,499.8,693.6z"/>
			<g>
				<path class="st1" d="M971,970.9c-4.6-10.1-9.2-20.3-13.8-30.5c-2.3-5.1-4.6-10.1-6.9-15.1l-6.9-15.1L915.7,850
					c-9.2-20.1-18.2-40.2-27.1-60.4c-8.9-20.2-17.8-40.4-26.5-60.7s-17.4-40.6-25.8-61c-4.2-10.2-8.4-20.4-12.4-30.7
					s-8-20.6-11.8-31c-7.7-20.7-15.2-41.5-22.8-62.2c-1.9-5.2-3.7-10.4-5.8-15.5c-0.5-1.3-1.1-2.5-1.7-3.8c-0.6-1.3-1.1-2.5-1.8-3.7
					l-1.9-3.7l-2.1-3.6c-2.8-4.7-5.9-9.2-9.4-13.5l-1.3-1.6l-1.4-1.5c-0.9-1-1.8-2.1-2.7-3.1l-2.9-2.9c-0.9-1-2-1.9-3-2.8
					c-2-1.9-4.1-3.6-6.2-5.4c-2.2-1.7-4.3-3.4-6.5-5s-4.5-3.1-6.8-4.6c-1.1-0.7-2.3-1.4-3.5-2.2c-1.2-0.7-2.3-1.4-3.5-2.1l-3.6-2
					l-3.6-2l-7.3-4l-14.5-8c-9.6-5.4-19.2-10.9-28.8-16.3l-14.4-8.2l-14.3-8.4L614,403.2l-14.3-8.4l-3.6-2.1
					c-1.2-0.7-2.4-1.3-3.6-2.4c-0.3-0.3-0.6-0.6-0.9-1.2c-0.3-0.5-0.3-1.3-0.1-1.8c0.4-1,1-1.5,1.5-2.1c1-1,2.1-1.9,3.1-2.8
					c8.3-7.3,16.8-14.4,24.8-21.9c4-3.7,8-7.6,11.7-11.6s7.1-8.3,10.3-12.8c6.3-8.9,11.5-18.7,15.8-28.7c2.2-5,4.1-10.2,5.9-15.4
					c1.8-5.2,3.4-10.5,4.7-15.8c5.3-21.3,6.8-43.5,5.1-65.4c-0.8-10.9-2.4-21.8-5.1-32.5c-2.6-10.6-6.1-21.1-10.6-31.1l-1.7-3.7
					l-1.8-3.7c-1.2-2.5-2.5-4.9-3.8-7.3c-1.3-2.4-2.8-4.7-4.2-7.1l-2.2-3.5c-0.8-1.1-1.5-2.3-2.3-3.4c-6.3-9-13.6-17.2-21.5-24.8
					c-4-3.8-8.1-7.4-12.3-10.9s-8.5-6.9-13-10c-9-6.3-18.5-11.8-28.5-16.3c-19.9-9.2-41.5-14.4-63.4-15.9
					c-5.5-0.4-10.9-0.6-16.4-0.6s-11,0.2-16.5,0.5c-5.5,0.4-10.9,0.8-16.4,1.5c-5.4,0.7-10.9,1.5-16.2,2.7
					c-10.7,2.2-21.3,5.3-31.3,9.6c-2.5,1-5,2.2-7.5,3.4c-2.4,1.3-4.9,2.4-7.3,3.8c-4.8,2.6-9.4,5.5-13.9,8.6
					c-18,12.4-33.2,28.7-44.9,47.2c-5.9,9.2-10.9,19-14.8,29.2s-6.4,20.9-7.6,31.7c-1.2,10.9-1.3,21.9-1.2,32.9l0.1,16.6
					c-0.1,5.5,0.5,10.8,1.4,16.2l0.7,4.1c0.2,1.4,0.5,2.6,0.8,3.9c0.7,2.6,1.4,5.1,2.5,7.5c2.1,4.9,5.3,9.2,9.2,12.5
					c2,1.7,4.2,3.1,6.5,4.3c2.4,1.2,4.8,2.2,7.4,2.9c2.5,0.8,5.2,1.3,7.9,1.8c2.7,0.5,5.4,1,8.1,1.5c10.8,1.9,21.8,3.4,32.7,4.9
					l4.1,0.6c1.4,0.2,2.7,0.4,4.2,0.6c2.9,0.5,5.7,1.5,8.3,2.8c2.6,1.3,5,2.8,7.3,4.5c1.2,0.8,2.3,1.7,3.4,2.5
					c0.3,0.2,0.5,0.4,0.9,0.7c0.7,0.6,0.9,1.1,1.1,1.6c0.4,1,0.5,1.8,0.5,2.7c0,0.5,0,0.9-0.1,1.4l-0.2,1.1
					c-0.2,0.7-0.3,1.4-0.5,2.1c-0.4,1.4-0.8,2.7-1.2,4.1l-0.6,2c-0.2,0.7-0.6,1.7-1.2,2.5s-1.6,1.5-2.6,1.8s-1.9,0.4-2.8,0.3
					c-0.8,0-1.6-0.2-2.4-0.3l-2-0.4l-4.1-0.8l-8.1-1.7c-10.8-2.2-21.7-4.6-32.3-7.4l-32.1-8.2l-7.8-2c-0.2,0-0.7,0-1.1,0.2
					c-0.2,0.1-0.4,0.2-0.5,0.2c-0.1,0.1-0.2,0.2,0-0.1c-0.7,1.3-1.5,2.4-1.9,3.5c-0.5,1.1-0.6,1.9-0.4,2.6c0.1,0.4,0.3,0.8,0.6,1.2
					c0.3,0.5,0.7,1,1.2,1.4c1.7,1.9,3.8,3.8,5.7,5.8l47.1,46.6l23.6,23.3c1,1,2,1.9,3,3c0.5,0.5,1,1.1,1.5,1.9
					c0.3,0.4,0.5,0.8,0.7,1.4s0.3,1.4,0.1,2.2c-0.2,0.8-0.6,1.4-1,1.8s-0.7,0.7-1.1,1c-0.7,0.5-1.3,0.9-2,1.3
					c-1.3,0.7-2.5,1.3-3.7,2l-14.7,7.6l-29.4,15.2l-14.7,7.6c-4.9,2.5-9.9,4.9-14.8,7.4l-59.4,29.3c-5,2.4-9.6,5.1-14,8.2
					s-8.5,6.6-12.2,10.5s-7,8.2-9.8,12.7l-1.1,1.7l-1,1.8c-0.7,1.2-1.3,2.4-1.9,3.6c-0.6,1.2-1.2,2.4-1.7,3.6
					c-0.6,1.2-1.1,2.5-1.7,3.8c-17.6,40.5-36.3,80.6-54.2,120.9l-26.8,60.6L120.1,722l-6.7,15.1l-6.8,15.1L51.9,872.9
					c-4.5,10-9.2,20.1-13.6,30.2c-2.2,5-4.2,10-5.8,15.2c-1.6,5.1-2.6,10.3-2.7,15.5c-0.2,5.3,0.5,10.5,1.8,15.6
					c1.4,5.1,3.4,10.1,5.9,14.8c0.6,1.2,1.2,2.4,1.9,3.5c0.7,1.2,1.4,2.3,2.1,3.4l1.1,1.7l1.1,1.7l1.1,1.7l1.2,1.6
					c3.2,4.1,7.2,7.4,11.7,10s9.5,4.6,14.7,6.1c5.2,1.5,10.5,3,15.9,4.2c10.6,2.5,21.4,4.4,32.3,5.6c5.4,0.6,10.9,1.1,16.3,1.5
					c5.5,0.3,10.9,0.6,16.4,0.6c10.9,0.2,21.9-0.4,32.9-1l16.5-1l2-0.1c0.6,0,1.3-0.1,1.7-0.2c0.2,0,0.4-0.1,0.5-0.1
					c0,0,0,0-0.1,0.1c-0.2,0.3,0,0.1,0-0.4c0.1-1,0.1-2.4,0.1-3.8v-4.1v-33.1v-66.2l-0.1-132.5v-66.2v-16.6c0-1.4,0-2.8,0.1-4.3
					c0-0.4,0-0.8,0.1-1.2c0-0.4,0.1-0.9,0.2-1.3c0.1-0.5,0.2-1,0.5-1.6s0.7-1.2,1.2-1.8c0.6-0.5,1.2-0.9,1.8-1.2
					c0.5-0.2,1.1-0.4,1.6-0.5s0.9-0.2,1.3-0.2c0.4-0.1,0.8-0.1,1.2-0.1c1.5-0.1,2.9-0.1,4.3-0.1h33.1l530-0.4h4.2
					c0.7,0,1.5,0,2.3,0.1c0.9,0.1,1.7,0.1,2.9,0.6c0.5,0.2,1.3,0.5,1.9,1c0.7,0.5,1.2,1.1,1.6,1.8c0.7,1.3,0.9,2.3,1,3.2
					c0.2,1.8,0.2,3.2,0.2,4.6v16.6v33.1v66.2l0.1,132.5l0.1,66.2v8.3c0,1.4,0,2.7,0.1,3.9c0,0.6,0.1,1.1,0.2,1.4
					c0.1,0.4,0.1,0.2-0.1,0c-0.1-0.1-0.1-0.1-0.1-0.1c0.1,0,0.1,0.1,0.3,0.1s0.4,0.1,0.6,0.1c0.2,0,0.5,0.1,0.8,0.1
					c1.2,0.1,2.5,0.2,3.9,0.2c2.7,0.1,5.5,0.2,8.2,0.2c10.9,0.2,21.9-0.1,32.7-1s21.6-2.5,32.1-5.2c5.2-1.3,10.4-2.9,15.4-4.9
					c5.1-1.9,10.1-4.1,15.1-6.3c10-4.4,19.9-9.2,29.9-13.9l3.8-1.8c0.3-0.1,0.6-0.3,1-0.5s0.7-0.3,1.1-0.5c0.7-0.3,1.4-0.5,2.1-0.8
					c2.8-1,5.6-1.7,8.4-2.3c2.8-0.6,5.6-1.2,8.5-1.5c1.5-0.2,2.9-0.3,4.5-0.4c1.5-0.1,3.1,0,4.9,0.2l5.8,0.9l-3.3,5
					c-2.5,3.8-4.7,7.9-7.5,12c-2.7,4.1-6,8.2-10.4,11.3c-1.1,0.8-2.2,1.5-3.4,2.1l-3,1.7c-2,1.1-4,2.3-6,3.4c-4,2.3-8,4.8-11.9,7.2
					c-15.7,9.9-30.6,21-44.8,33c-7.1,6-14,12.2-20.8,18.6s-13.6,12.8-20.4,19.3l-20.3,19.5l-10.2,9.7l-5.1,4.8l-2.6,2.4l-2.7,2.4
					c-7.3,6.4-15.5,12-24.6,15.9s-19,5.9-28.9,6.1h-3.7l-3.5-0.1l-7-0.1l-14.1-0.2l-28.1-0.5c-37.5-0.9-75-0.8-112.5-1.6l-28.1-0.6
					l-14.1-0.3l-14.1-0.1l-56.3-0.4c-18.8-0.1-37.5-0.4-56.3-0.7l-56.3-0.8c-18.8-0.3-37.5-0.5-56.3-0.9s-37.5-0.7-56.3-1.1
					l-14.1-0.3c-0.6,0-1.3-0.1-1.9-0.1c-0.7,0-1.3-0.1-2-0.2c-1.3-0.2-2.6-0.4-3.9-0.7c-2.6-0.6-5.1-1.5-7.5-2.7
					c-2.4-1.1-4.6-2.5-6.7-4.1c-2.2-1.6-3.8-3.1-5.6-4.6l-10.7-9.1l-21.5-18.2c-7.1-6.1-14.4-12.2-21.4-18.2
					c-28.4-24.1-58.6-46.2-91-64.5c-4-2.3-8.1-4.5-12.2-6.7c-2.1-1.2-4.3-2.4-6.4-3.7l-3.1-2.1c-1-0.7-2.1-1.3-3-2.1
					c-7.9-6-14.8-13.4-20.1-21.9c-5.2-8.5-8.6-18.1-10.3-27.8c-0.3-1.2-0.4-2.4-0.6-3.7l-0.5-3.7c-0.2-2.4-0.4-4.9-0.5-7.3v-3.7
					c0-1.2,0-2.4,0.1-3.7l0.2-3.7v-0.9v-0.5l0.1-0.5c0.1-0.7,0.2-1.4,0.3-2.1c1.1-5.6,3.5-10,5.3-14.2l5.8-12.8l11.6-25.6l23.2-51.3
					l46.6-102.4L139.9,612c3.9-8.5,7.8-17.1,11.8-25.6l11.9-25.5l23.7-51.1c2-4.3,4-8.5,5.9-12.7c1-2.1,1.9-4.2,2.8-6.3
					c1-2.2,2-4.5,3.1-6.7c4.5-8.8,10.4-16.9,17.6-23.7c7.1-6.8,15.3-12.5,24-16.9c8.5-4.3,16.8-8.3,25.3-12.5l50.5-24.9l12.6-6.2
					l6.3-3.1l6.4-3l12.7-6l6.4-3c1.2-0.6,3.3-2.2,5.3-3.6l0.4,7.5l-3-1.6c-1.1-0.6-2.3-1.1-3.4-1.8c-2.2-1.3-4.4-2.6-6.5-4.1
					c-4.2-2.9-8-6.2-11.6-9.6s-7-7-10.3-10.5s-6.5-7-9.9-10.4c-6.7-6.8-13.5-13.3-20.8-19.2l-1.4-1.1c-0.4-0.3-0.8-0.6-1.3-1
					c-0.9-0.6-1.8-1.2-2.7-1.7c-1.9-1.1-3.8-2-5.8-2.8c-2-0.7-4.1-1.3-6.1-1.6c-2.6-0.4-5.3-1.1-7.9-2.1c-5.2-2-9.7-5.5-13.2-9.5
					s-6.1-8.5-8.4-12.9c-4.6-9-7.6-18.7-9.2-28.5c-0.8-4.9-1.3-9.9-1.6-14.8c-0.2-4.9-0.3-9.9-0.1-14.8c0.4-9.9,1.9-19.8,4.6-29.4
					c1.4-4.8,3-9.5,5-14.1s4.3-9,6.8-13.3c2.6-4.3,5.4-8.4,8.7-12.3c0.4-0.5,0.8-1,1.2-1.4l1.2-1.4c0.8-0.8,1.5-1.7,2.2-2.6
					c1.4-1.8,2.8-3.6,4-5.5c5.1-7.6,8.7-16.2,11.7-25.1c3.2-9.2,7-18.3,11.3-27.1s9.3-17.3,14.9-25.4s11.7-15.8,18.6-22.8
					c6.8-7.1,14.2-13.6,22-19.5c7.8-6,16.2-11.1,24.8-15.9c17.3-9.3,36.2-15.5,55.3-19.3c19-3.7,38.5-6.1,58.1-5.5
					c19.4,0.7,38.8,2.4,57.9,6.6c9.5,2.1,19,4.8,28.1,8.3c9.2,3.5,18.1,7.7,26.5,12.7c16.9,9.8,32.3,22.4,45.1,37.3
					c1.6,1.8,3.2,3.7,4.7,5.6s3,3.9,4.5,5.8c2.9,3.9,5.7,7.9,8.4,11.9c5.4,8.1,10.5,16.3,15.5,24.4c4.9,8.1,10.7,15.4,17.2,22.2
					c3.2,3.4,6.6,6.7,10.1,9.9c1.8,1.6,3.5,3.1,5.3,4.9l2.7,2.5c0.9,0.9,1.7,1.8,2.6,2.7c3.5,3.5,6.5,7.4,9.5,11.5l2.1,3.1
					c0.3,0.5,0.7,1,1,1.6l0.9,1.6l1.9,3.2l1.7,3.3l0.8,1.7l0.7,1.7l1.4,3.4l1.2,3.5l0.6,1.8c0.2,0.6,0.3,1.2,0.5,1.8l1,3.6
					c0.3,1.2,0.5,2.4,0.8,3.6c0.6,2.4,0.9,4.9,1.3,7.3c1.3,9.9,1,19.8-0.3,29.6c-0.8,4.9-1.8,9.8-3.3,14.5s-3.4,9.4-5.7,13.8
					s-5,8.6-8.1,12.6c-3.1,3.9-6.4,7.6-10,11c-3.7,3.3-7.5,6.5-11.6,9.3l-2.9,2c-0.9,0.7-1.9,1.4-2.8,2.1c-1.8,1.5-3.6,2.9-5.4,4.5
					c-7,6.3-13.1,13.5-18.8,21.1l-17.2,23.1l-17.2,23.2l-4.3,5.8l-2.1,2.9c-0.7,0.9-1.4,1.9-1.8,2.6c-0.1,0.2-0.1,0.3-0.2,0.4l0,0
					c0-0.1,0-0.1,0-0.2s0-0.1,0-0.2c0,0,0-0.1,0,0l0.1,0.1c0,0,0.1,0.1,0.2,0.2c0.3,0.3,0.7,0.6,1.1,0.9l1.4,1l5.9,4.1
					c15.8,11,31.5,22.1,47.5,32.6c7.9,5.3,16.2,9.8,24.8,14.1c4.3,2.2,8.6,4.2,12.9,6.5c2.2,1.1,4.3,2.3,6.4,3.5
					c2.1,1.3,4.2,2.5,6.2,3.8c8.2,5.2,16,11.1,23.2,17.8c3.6,3.3,7,6.8,10.3,10.3c1.6,1.8,3.3,3.6,4.8,5.5l2.3,2.8l2.2,2.9
					c5.9,7.7,11.1,16,15.7,24.6c4.6,8.6,8.6,17.4,12.3,26.3c3.7,8.9,7.2,17.9,10.7,26.8c3.5,8.9,7.2,17.8,10.7,26.8l21.6,53.5
					l21.6,53.5l10.8,26.7l5.4,13.4c1.8,4.5,3.7,8.9,5.5,13.3l44.4,106.5l11.1,26.6l5.5,13.3c1.9,4.4,3.8,8.8,5.7,13.2
					s3.9,8.8,5.7,13.3c0.9,2.2,1.8,4.5,2.7,6.7s1.7,4.5,2.4,6.9c1.3,4.7,1.5,9.8,0.4,14.5c-0.6,2.4-1.4,4.7-2.5,6.9
					c-0.3,0.5-0.6,1.1-0.9,1.6c-0.3,0.5-0.6,1.1-1,1.6l-0.5,0.8c-0.2,0.3-0.3,0.5-0.6,0.8C972,969.9,971.4,970.4,971,970.9z
					 M971.1,970c0.3-0.5,0.4-0.9,0.7-1.3c0.1-0.2,0.3-0.4,0.5-0.7l0.5-0.7c0.3-0.5,0.6-1,0.9-1.5c0.3-0.5,0.6-1,0.8-1.6
					c1.1-2.1,1.9-4.3,2.4-6.7c1.1-4.6,0.8-9.5-0.5-14c-0.6-2.3-1.5-4.5-2.4-6.7s-1.8-4.5-2.7-6.7c-1.9-4.4-3.8-8.8-5.8-13.2
					s-3.9-8.8-5.8-13.2l-5.7-13.3l-11.3-26.5l-45.1-106.2c-1.9-4.4-3.8-8.8-5.6-13.3l-5.5-13.3l-11-26.7L853.7,651l-21.9-53.4
					c-3.6-8.9-7.3-17.8-10.9-26.7c-3.6-8.9-7.1-17.9-10.8-26.7s-7.8-17.5-12.3-25.9c-4.6-8.4-9.6-16.4-15.5-23.9l-2.2-2.8l-2.3-2.7
					c-1.5-1.9-3.1-3.6-4.7-5.4c-3.2-3.5-6.6-6.9-10.1-10c-7-6.4-14.6-12.1-22.6-17.2c-2-1.3-4.1-2.4-6.1-3.7
					c-2.1-1.1-4.1-2.3-6.2-3.4c-4.2-2.2-8.6-4.3-12.9-6.4c-4.3-2.1-8.6-4.4-12.9-6.7c-2.1-1.2-4.2-2.4-6.3-3.7
					c-2.1-1.3-4.1-2.6-6.2-3.9C673.6,418,657.9,407,642,396.1l-5.9-4.1l-1.5-1.1c-0.5-0.4-1.1-0.8-1.7-1.4c-0.2-0.2-0.3-0.3-0.5-0.5
					s-0.3-0.4-0.5-0.6s-0.3-0.5-0.5-0.8c-0.1-0.3-0.2-0.7-0.3-1c0-0.4,0-0.7,0-1.1c0-0.3,0.1-0.6,0.2-0.9c0.2-0.5,0.3-1,0.5-1.3
					c0.8-1.4,1.5-2.3,2.2-3.3l2.1-2.9l4.3-5.8l17.1-23.3l17.1-23.3c5.8-7.7,12.1-15.3,19.4-21.9c1.8-1.7,3.7-3.3,5.6-4.8
					c1-0.8,2-1.5,3-2.2l3-2.1c3.9-2.7,7.5-5.6,10.9-8.8c3.4-3.2,6.5-6.7,9.4-10.3c2.8-3.7,5.3-7.6,7.5-11.7
					c2.1-4.1,3.8-8.4,5.3-12.8c1.4-4.4,2.3-9,3.1-13.6c1.2-9.2,1.4-18.7,0.2-27.9c-0.4-2.3-0.6-4.6-1.2-6.9
					c-0.3-1.1-0.5-2.3-0.8-3.4l-1-3.3c-0.2-0.6-0.3-1.1-0.5-1.7l-0.6-1.6l-1.2-3.3l-1.4-3.2l-0.7-1.6l-0.8-1.6l-1.6-3.1l-1.8-3
					l-0.9-1.5c-0.3-0.5-0.6-1-1-1.5l-1.9-2.9c-2.7-3.7-5.6-7.4-8.9-10.7c-0.8-0.8-1.6-1.7-2.4-2.5l-2.6-2.4
					c-1.7-1.6-3.6-3.2-5.3-4.8c-3.6-3.3-7.1-6.7-10.5-10.2c-6.8-7-13-14.8-18.1-23.2c-5.1-8.2-10.2-16.3-15.5-24.2
					c-5.4-7.9-10.9-15.6-17.1-22.7c-12.4-14.2-27.2-26.2-43.5-35.7c-16.3-9.6-34.2-16-52.7-20s-37.6-5.7-56.6-6.3
					c-18.9-0.5-37.8,1.8-56.5,5.5c-18.5,3.7-36.6,9.8-53.2,18.7c-8.2,4.6-16.3,9.5-23.7,15.3c-7.5,5.7-14.5,12-21,18.8
					s-12.4,14.2-17.7,21.9c-5.3,7.8-10.1,15.9-14.2,24.4s-7.7,17.2-10.8,26.2c-3.1,9.2-7,18.6-12.6,27c-1.4,2.1-2.9,4.2-4.5,6.1
					c-0.8,1-1.6,2-2.5,2.9l-1.2,1.3c-0.4,0.4-0.7,0.9-1.1,1.3c-2.9,3.5-5.6,7.3-7.9,11.2c-4.7,8-8.4,16.5-10.9,25.4
					s-3.8,18.2-4.2,27.5c-0.3,9.3,0,18.8,1.6,27.9c1.5,9.1,4.3,18,8.5,26.1c2.1,4.1,4.4,8,7.3,11.2c2.8,3.2,6.1,5.7,10,7.2
					c1.9,0.7,3.9,1.2,6,1.6c2.7,0.4,5.3,1.1,7.8,2s4.9,2,7.2,3.4c1.1,0.7,2.3,1.4,3.4,2.2c0.5,0.4,1.1,0.8,1.6,1.2l1.5,1.2
					c7.7,6.2,14.8,12.9,21.6,19.8c6.9,6.9,13.2,14.2,20,20.6c3.4,3.2,6.9,6.2,10.6,8.8c1.8,1.3,3.8,2.5,5.7,3.6c1,0.6,2,1,3,1.5
					l3.4,1.8l6.4,3.4l-6.1,4.1c-0.9,0.6-1.8,1.2-2.8,1.9c-1,0.7-2.1,1.5-3.6,2.2l-6.3,3l-12.7,6l-6.3,3l-6.3,3.1l-12.6,6.3l-50.4,25
					l-25.1,12.5c-8,4.1-15.4,9.3-21.8,15.4c-6.4,6.1-11.7,13.4-15.8,21.3c-1,2-1.9,4-2.8,6.1c-0.9,2.2-1.9,4.4-2.9,6.6
					c-2,4.3-4,8.6-6,12.8l-23.7,51L160,590.1c-4,8.5-7.9,17-11.8,25.6l-46.7,102.4L55.1,820.7L31.9,872l-11.6,25.6l-5.8,12.8
					c-2,4.4-4,8.4-4.7,12c-0.1,0.5-0.2,0.9-0.2,1.3v0.3v0.4v0.8l-0.2,3.4c-0.1,1.1-0.1,2.2-0.1,3.4v3.4c0.1,2.2,0.3,4.5,0.4,6.7
					l0.4,3.3c0.1,1.1,0.3,2.2,0.5,3.3c1.6,8.7,4.5,17.2,9.1,24.6c4.6,7.5,10.6,14,17.7,19.3c0.8,0.7,1.8,1.3,2.7,1.9l2.8,1.9
					c1.9,1.2,3.9,2.2,5.8,3.4c4.1,2.3,8.3,4.5,12.4,6.8c33,18.7,63.6,41.1,92.3,65.6c7.2,6.2,14.3,12.2,21.4,18.3l21.4,18.2
					l10.7,9.1c1.8,1.5,3.6,3.1,5.2,4.3c1.7,1.2,3.4,2.3,5.3,3.2c1.8,0.9,3.8,1.6,5.7,2.1c1,0.3,2,0.4,3,0.6c0.5,0.1,1,0.1,1.5,0.2
					c0.5,0,1,0.1,1.6,0.1l14,0.3c18.7,0.5,37.4,0.8,56.2,1.2c18.7,0.4,37.5,0.7,56.3,1l56.3,0.9c18.8,0.3,37.5,0.7,56.3,0.8
					l56.3,0.5l14.1,0.1l14.1,0.3l28.1,0.6c37.5,0.9,75,0.9,112.6,1.8l28.2,0.6l14.1,0.3l7,0.1l3.5,0.1h3.3
					c8.9-0.1,17.7-1.9,25.8-5.4c8.2-3.5,15.7-8.5,22.4-14.5l2.5-2.3l2.6-2.4l5.1-4.8l10.2-9.7l20.3-19.5c6.8-6.5,13.6-13,20.5-19.4
					s13.9-12.8,21.2-18.8c14.5-12.2,29.7-23.5,45.8-33.6c4-2.5,8.1-5,12.2-7.4c2.1-1.2,4.1-2.4,6.2-3.5l3.1-1.7
					c0.9-0.5,1.8-1,2.6-1.6c3.3-2.3,6-5.6,8.5-9.3s4.8-7.8,7.4-11.9l2.5,5.9c-0.9-0.1-2.1-0.2-3.3-0.1c-1.2,0-2.5,0.2-3.8,0.3
					c-2.6,0.3-5.2,0.8-7.8,1.4c-2.6,0.6-5.2,1.3-7.6,2.1c-0.6,0.2-1.2,0.4-1.8,0.6c-0.3,0.1-0.5,0.2-0.8,0.3s-0.5,0.2-0.9,0.4
					l-3.7,1.8c-10,4.7-20,9.5-30.1,14c-5.1,2.2-10.2,4.4-15.5,6.4s-10.7,3.7-16.2,5.1c-11,2.8-22.1,4.4-33.3,5.3
					c-11.1,0.9-22.3,1.2-33.5,1c-2.8-0.1-5.6-0.1-8.4-0.2c-1.4-0.1-2.8-0.1-4.4-0.3c-0.4,0-0.8-0.1-1.2-0.2
					c-0.4-0.1-0.9-0.1-1.4-0.3c-0.4-0.1-1.1-0.3-1.6-0.6c-0.6-0.3-1.2-0.7-1.8-1.3c-1.2-1.1-1.8-2.6-1.9-3.6
					c-0.3-1.1-0.3-1.9-0.4-2.7c-0.1-1.6-0.1-3-0.1-4.3v-8.3v-66.2l0.1-132.5v-66.2v-33.1v-16.5c0-1.3,0-2.7-0.2-3.7
					c-0.1-0.5-0.2-0.8-0.1-0.7c0,0.1,0.1,0.2,0.2,0.2c0,0.1,0.2,0.1,0,0c-0.1-0.1-0.7-0.1-1.2-0.2c-0.6,0-1.2-0.1-1.8-0.1h-4.1
					l-530-0.4h-33.1c-1.4,0-2.8,0-4,0c-0.3,0-0.6,0-0.9,0.1c-0.3,0-0.5,0.1-0.7,0.1s-0.3,0.1-0.4,0.1c0,0,0,0,0.1-0.1
					c0.1-0.2,0.1-0.1,0,0.3c0,0.2-0.1,0.4-0.1,0.7s-0.1,0.6-0.1,0.9c-0.1,1.2-0.1,2.6-0.1,4v16.6v66.2l-0.1,132.5V962v33.1v4.1v2.1
					c0,0.7,0,1.5-0.1,2.4c-0.1,0.4-0.2,1-0.3,1.5c-0.2,0.6-0.5,1.3-1.1,1.9c-0.6,0.6-1.2,1-1.8,1.3c-0.6,0.2-1.1,0.4-1.5,0.4
					c-0.9,0.2-1.7,0.2-2.4,0.3l-2.1,0.1l-16.5,1c-11,0.6-22.2,1.2-33.3,1c-5.6,0-11.1-0.3-16.7-0.6c-5.6-0.4-11.1-0.8-16.6-1.5
					c-11.1-1.3-22.1-3.2-32.9-5.8c-5.4-1.3-10.8-2.7-16.2-4.3c-5.4-1.6-10.8-3.7-15.8-6.6c-5-2.9-9.6-6.8-13.3-11.4l-1.3-1.8
					l-1.2-1.7l-1.2-1.7l-1.1-1.8c-0.8-1.2-1.5-2.4-2.2-3.6c-0.7-1.2-1.4-2.5-2.1-3.7c-2.6-5-4.8-10.4-6.3-15.9
					c-1.4-5.6-2.1-11.4-2-17.2c0.2-5.8,1.3-11.5,3-17c1.7-5.4,3.8-10.6,6.1-15.7c4.5-10.1,9.1-20.1,13.7-30.2L102,750.1l6.9-15.1
					l6.7-15.1l13.4-30.3l26.8-60.6c18-40.4,36.7-80.4,54.4-120.8c1.1-2.5,2.2-5.1,3.5-7.6c0.6-1.3,1.3-2.5,2-3.7l1-1.8l1.1-1.8
					c3-4.8,6.5-9.3,10.4-13.5c7.8-8.2,17.4-14.8,27.5-19.6l59.4-29.3c4.9-2.5,9.9-4.8,14.8-7.4l14.7-7.6l29.4-15.2l14.7-7.6
					c1.2-0.6,2.5-1.3,3.6-1.9c0.5-0.3,1.1-0.6,1.5-0.9c0.2-0.2,0.4-0.3,0.5-0.4s0.1-0.1,0,0c0,0.1,0,0.3,0,0.2
					c0-0.1-0.1-0.2-0.2-0.4c-0.3-0.4-0.7-0.9-1.1-1.3c-0.9-0.9-1.9-1.9-2.9-2.9l-23.5-23.3l-47-46.7c-1.9-2-3.9-3.8-5.9-6
					c-0.5-0.6-0.9-1.1-1.4-1.8c-0.5-0.7-0.9-1.6-1.2-2.5c-0.5-2,0-4,0.7-5.4c0.7-1.5,1.5-2.6,2.1-3.8c0.5-0.8,1-1.2,1.5-1.4
					c0.5-0.3,0.9-0.5,1.3-0.6c0.9-0.3,1.7-0.5,2.9-0.4c0.8,0.1,0.9,0.2,1.3,0.3l1,0.3l2,0.5l4,1L360,304c10.7,2.9,21.4,5.2,32.2,7.5
					l8.1,1.7l4.1,0.8l2,0.4c0.6,0.1,1.2,0.2,1.7,0.3c0.5,0,1,0,1.3-0.1s0.5-0.3,0.8-0.5c0.2-0.3,0.4-0.6,0.6-1.2l0.6-2
					c0.4-1.3,0.8-2.6,1.2-3.9c0.2-0.6,0.3-1.3,0.5-1.9l0.2-0.9c0-0.2,0-0.4,0-0.6c0-0.5-0.1-1-0.2-1.3c-0.1-0.2-0.1-0.2,0-0.1
					l-0.7-0.6c-1.1-0.8-2.2-1.6-3.3-2.4c-2.2-1.6-4.4-3-6.8-4.1c-2.3-1.2-4.8-2-7.3-2.5c-1.2-0.2-2.7-0.4-4-0.6l-4.1-0.6
					c-10.9-1.5-21.9-3.1-32.8-5c-2.7-0.5-5.5-1-8.2-1.5c-1.4-0.3-2.7-0.5-4.1-0.8s-2.8-0.6-4.1-1.1c-2.8-0.8-5.4-1.9-8-3.2
					c-2.6-1.4-5-3-7.2-4.8c-4.4-3.8-8-8.6-10.2-13.9c-1.2-2.6-2-5.4-2.7-8.2c-0.3-1.4-0.6-2.8-0.8-4.2l-0.7-4.1
					c-0.8-5.5-1.5-11.2-1.4-16.8l-0.1-16.6c0-11.1,0.1-22.2,1.3-33.3c1.3-11.1,3.9-22.1,7.9-32.5c4-10.5,9.1-20.4,15.1-29.8
					c11.9-18.8,27.5-35.4,45.9-48.1c4.6-3.2,9.3-6.1,14.2-8.8c2.4-1.4,4.9-2.6,7.4-3.9c2.5-1.2,5-2.4,7.6-3.4
					c10.3-4.3,21-7.5,31.9-9.7c5.4-1.1,11-2,16.5-2.7s11.1-1.1,16.6-1.5c5.5-0.3,11.1-0.5,16.6-0.5c5.6,0,11.1,0.2,16.7,0.6
					c22.2,1.6,44.2,6.9,64.4,16.3c10.1,4.6,19.8,10.2,28.9,16.6c4.6,3.2,8.9,6.6,13.2,10.2s8.4,7.2,12.4,11.1
					c8,7.7,15.4,16.1,21.8,25.2c0.8,1.1,1.6,2.3,2.3,3.5l2.2,3.5c1.4,2.4,2.9,4.8,4.2,7.2c1.3,2.5,2.7,4.9,3.9,7.4l1.8,3.7l1.7,3.8
					c4.5,10.2,8.1,20.8,10.7,31.6c2.7,10.8,4.3,21.8,5.1,32.9c1.6,22.1,0.1,44.6-5.3,66.2c-1.3,5.4-3,10.7-4.8,16s-3.8,10.4-6,15.5
					c-4.4,10.2-9.7,20.1-16.1,29.1c-3.2,4.5-6.7,8.9-10.5,13s-7.8,7.9-11.9,11.7c-8.1,7.5-16.6,14.6-24.9,21.9c-1,0.9-2.1,1.8-3,2.7
					c-0.4,0.4-0.9,1-0.9,1.2c0,0.1,0,0.1,0,0.2s0.2,0.3,0.4,0.5c0.8,0.7,2.1,1.4,3.2,2.1l3.6,2.1l14.2,8.4l28.5,16.9l14.3,8.4
					l14.3,8.3c9.6,5.5,19.2,11,28.8,16.4l14.5,8l7.3,4l3.6,2l3.6,2c1.2,0.7,2.4,1.4,3.6,2.1c1.2,0.7,2.4,1.4,3.5,2.2
					c2.3,1.5,4.6,3,6.9,4.7c2.3,1.6,4.4,3.4,6.6,5.1c2.1,1.8,4.3,3.6,6.3,5.5c1,1,2.1,1.9,3,2.9l2.9,3c1,1,1.8,2.1,2.8,3.1l1.4,1.6
					l1.3,1.6c3.5,4.3,6.6,8.9,9.5,13.7l2.1,3.6l1.9,3.7c0.7,1.2,1.2,2.5,1.8,3.8s1.2,2.5,1.7,3.8c2.1,5.2,3.9,10.4,5.8,15.6
					c7.5,20.8,15,41.6,22.6,62.3c3.8,10.3,7.8,20.7,11.8,30.9c4,10.3,8.2,20.5,12.4,30.7c8.4,20.4,17,40.8,25.7,61.1
					s17.5,40.5,26.4,60.7s17.9,40.4,27,60.5l27.5,60.2l6.9,15.1c2.3,5,4.6,10.1,6.8,15C962.4,949.9,966.7,959.9,971.1,970z"/>
				<path class="st1" d="M499.3,1119.9l55.3,0.1l55.3-0.1l110.5-0.5l27.6-0.2l13.8-0.1c2.3,0,4.7,0,6.8-0.2c0.3,0,0.5-0.1,0.7-0.1
					c0.2-0.1,0.4-0.1,0.6-0.2c0.4-0.1,0.5-0.3,0.7-0.5c0.3-0.5,0.4-1.7,0.5-2.7l-0.3-55.2l-0.6-110.5l-0.3-110.5l-0.2-55.3
					c0-2.3,0-4.8-0.1-6.6c0-0.5-0.1-0.8-0.2-0.9c-0.1-0.1,0.1,0.2,0.1,0.2s-0.1,0-0.2-0.1c-0.2,0-0.3-0.1-0.5-0.1
					c-0.4,0-0.9-0.1-1.4-0.1c-1,0-2.2,0-3.4,0.1l-3.5,0.1l-6.9,0.2l-13.8,0.5c-4.6,0.2-9.2,0.3-13.8,0.4l-221,5l-110.5,2.5
					c-36.8,0.9-73.7,1.8-110.5,2.4l-27.6,0.4l-13.8,0.2l-6.9,0.1l-3.4,0.1c-0.5,0-1,0-1.4,0.1c-0.2,0-0.4,0-0.5,0.1
					c-0.2,0-0.1,0-0.1,0s0.1,0,0.2-0.1c0.1,0,0.1-0.1,0.3-0.2c0.2-0.2,0.5-0.4,0.6-0.7c0.1-0.1,0.1-0.1,0.1-0.2c0-0.1,0-0.1,0-0.1
					l0,0v0.2c-0.1,0.6-0.1,1.7-0.1,2.8v6.9v13.8v27.6L231.2,949l-0.3,55.3l-0.5,55.3l-0.6,55.2v0.8v0.7c0,0.2,0.1,0.4,0.1,0.6
					l0.1,0.3c0.1,0.1-0.1-0.2-0.2-0.2c0,0,0,0,0.1,0s0.1,0,0.2,0.1h0.3c0.8,0.1,1.9,0.2,3,0.2h3.4l13.8,0.2l27.6,0.3l110.5,1.3
					l55.3,0.4L499.3,1119.9z M499.3,1120.8L444,1121l-55.3,0.4l-110.5,1.3l-27.6,0.3l-13.8,0.2h-3.5c-1.2,0-2.4,0-3.9-0.2l-0.6-0.1
					l-0.7-0.2c-0.4-0.1-1-0.4-1.5-0.6c-1.1-0.6-2-1.9-2.4-2.9c-0.2-0.5-0.3-0.9-0.4-1.3c-0.1-0.4-0.1-0.8-0.2-1.1l-0.1-1v-0.9
					l-0.7-55.3l-0.5-55.3L222,949l-0.2-110.5v-27.6v-13.8v-6.9c0-1.2,0-2.4,0.2-4.1l0.1-0.7c0.1-0.3,0.1-0.5,0.2-0.8
					c0.1-0.3,0.1-0.5,0.3-0.9c0.1-0.3,0.3-0.7,0.5-1c0.5-0.7,1-1.4,1.7-1.9c0.4-0.3,0.7-0.5,1-0.6c0.3-0.2,0.7-0.3,1-0.4
					c0.5-0.2,1.1-0.3,1.5-0.4c0.4-0.1,0.9-0.1,1.2-0.2c0.8-0.1,1.4-0.1,2-0.1h3.5l6.9-0.1l13.8-0.1l27.6-0.3
					c36.8-0.2,73.6-0.9,110.5-1.4l110.5-1.7l221-3.6c4.6-0.1,9.2-0.2,13.8-0.3l13.8-0.4l6.9-0.2l3.5-0.1c1.1,0,2.3-0.1,3.6-0.1
					c0.6,0,1.3,0,2,0.1c0.3,0,0.8,0.1,1.2,0.2c0.5,0.1,0.9,0.2,1.4,0.5c0.5,0.2,1.1,0.7,1.5,1.1c0.2,0.2,0.4,0.5,0.6,0.8
					c0.1,0.2,0.3,0.5,0.4,0.8c0.4,0.9,0.5,1.8,0.6,2.4c0.2,2.7,0.1,4.9,0.1,7.2l-0.2,55.3l-0.3,110.5l-0.6,110.5l-0.2,27.6
					l-0.1,13.8v6.9c0,2.3,0,4.6-0.1,7c0,0.6-0.1,1.2-0.2,1.9c-0.1,0.6-0.3,1.4-0.7,2.1c-0.5,0.8-1.3,1.3-2,1.6
					c-0.4,0.1-0.7,0.2-1,0.3c-0.3,0-0.7,0.1-1,0.1c-2.5,0.2-4.7,0.1-7,0.1l-13.8-0.1l-27.6-0.2l-110.5-0.5l-55.3-0.1L499.3,1120.8z"
					/>
				<path class="st1" d="M499.8,694l-38.2-0.1l-38.2,0.1l-76.4,0.5l-76.4,0.7l-38.2,0.3c-1.6,0-3.2,0-4.3,0.3
					c-0.2,0-0.3,0.1-0.4,0.1c-0.1,0-0.1,0-0.2,0c0,0-0.1,0-0.1,0.1c-0.1,0-0.1,0.1-0.1,0.1s0,0.1-0.1,0.1c-0.1,0.1-0.3,0.7-0.3,1.3
					c-0.1,1.3-0.1,3-0.1,4.5v4.8l0.1,19.1L227,745v9.6v4.8c0,1.5,0,3.2,0.2,4.1c0.1,0.2,0.1,0.3,0.1,0.3l0,0l0,0
					c0.1,0.1,0.8,0.2,1.4,0.2c1.4,0.1,3,0,4.6-0.1l9.5-0.3l19.1-0.5l38.2-1.1c12.7-0.3,25.5-0.5,38.2-0.8
					c50.9-1,101.9-2.1,152.8-2.9l19.1-0.3c6.4-0.1,12.7-0.2,19.1-0.4l38.2-1.1l76.4-2.2c6.4-0.2,12.7-0.3,19.1-0.4l19.1-0.3
					l38.2-0.5l38.2-0.4h2.4h1.2c0.3,0,0.6,0,0.9,0c0.5,0,0.9-0.1,0.9-0.1s-0.3,0.2-0.3,0.3s0.1-0.1,0.2-0.6c0-0.2,0.1-0.5,0.1-0.7
					l0.1-1.2l0.4-4.8l1.7-19.1l1.8-19l0.9-9.5v-0.4c0-0.1,0-0.2,0-0.3c0-0.2,0-0.3,0-0.3s0,0.2,0.2,0.3c0.1,0.2,0.4,0.4,0.5,0.5
					c0.3,0.1,0.1,0-0.3,0H767l-38.3-0.5l-76.4-1.3l-76.4-1.3l-38.2-0.4L499.8,694z M499.8,693.1l38.2-0.2l38.2-0.4l76.4-1.3
					l76.4-1.3l38.2-0.5h2.5c1.1,0,2.6,0.1,4.3,1c0.8,0.5,1.7,1.2,2.3,2.1c0.6,0.9,0.9,1.7,1.1,2.5c0.2,0.8,0.2,1.5,0.3,2.1
					c0,0.3,0,0.6,0,0.9l-0.1,0.8l-0.8,9.5l-1.5,19l-1.6,19l-0.4,4.8l-0.1,1.2c-0.1,0.5-0.1,1-0.2,1.6c-0.2,1.1-0.5,2.4-1.4,3.9
					c-0.4,0.7-1.1,1.4-1.7,2c-0.3,0.3-0.7,0.5-1.1,0.8c-0.4,0.2-0.8,0.4-1.1,0.5c-1.5,0.6-2.7,0.7-3.7,0.8c-0.5,0-1,0.1-1.5,0.1
					h-1.2h-2.4l-38.2,0.5c-25.5,0.3-50.9,0.3-76.4,0.7l-76.4,1.3l-38.2,0.7c-6.4,0.1-12.7,0.1-19.1,0.2l-19.1,0.1
					c-50.9,0.3-101.9,1-152.8,1.5c-12.7,0.2-25.5,0.2-38.2,0.5l-38.2,0.7l-19.1,0.4l-9.5,0.2c-1.6,0-3.2,0.1-5,0
					c-0.9-0.1-1.9-0.1-3.2-0.7c-0.6-0.3-1.4-0.8-1.9-1.5c-0.3-0.3-0.4-0.6-0.6-1c-0.2-0.3-0.2-0.6-0.3-0.9c-0.3-1.1-0.3-2-0.4-2.9
					c0-0.9,0-1.7,0-2.5v-4.8v-9.6l0.1-19.1l0.1-19.1v-4.8c0-1.6,0-3.2,0.2-5c0.1-0.9,0.2-2,1.1-3.2c0.2-0.3,0.4-0.6,0.7-0.8
					s0.6-0.5,0.9-0.6l0.4-0.2c0.1-0.1,0.3-0.1,0.4-0.1c0.3-0.1,0.6-0.2,0.8-0.2c2-0.4,3.5-0.3,5.2-0.3l38.2,0.3l76.4,0.7l76.4,0.5
					l38.2,0.1H499.8z"/>
			</g>
		</g>
		<g>
			<path class="st1" d="M368.3,963.1c0.5-31.7,11.4-61.4,36.4-85c17.5-16.6,38.4-27.4,61.9-33c15.9-3.8,32-4,48-1.6
				c6,0.9,11.9,3.1,17.9,4.5c1.4,0.3,3.5,0.3,4.5-0.5c8-6.5,16.1-13,23.5-20.1c3.9-3.7,7-8.4,9.6-13.2c1.9-3.6,4.1-4.8,7.5-3.3
				c8.6,3.9,17.6,7.3,25.4,12.4c16.3,10.8,29.6,24.7,38.1,42.7c3.1,6.5,3.1,7.8-2,12.6c-11,10.4-16.9,24.2-24.8,36.7
				c-2.9,4.5-2.9,8.6-1.7,13.6c10.7,41.3,4.6,79.8-21.3,114.1c-19.8,26.1-46.4,42.1-78.9,46.4c-40,5.4-75.8-5.7-105.4-33.3
				C381.1,1031.9,368.5,1001.1,368.3,963.1z M505.6,1081.5c2.6-0.3,3.8-0.5,4.9-0.6c20.3-2.6,37.7-11.5,53.4-24.3
				c6.4-5.2,6.2-5.1,2.9-12.6c-1-2.2,0.3-5.6,1.2-8.2c0.2-0.5,3.9,0.3,5.9,0.7c0.9,0.2,1.8,0.9,2.6,1.4c3.1,2,5.5,1.2,7.7-1.6
				c12.5-16,20.4-33.8,23.1-54c0.5-3.7-0.8-5.9-4.5-7.2c-3.1-1.1-8.1-0.3-8.1-5.7c0.1-5.3,5.1-4.6,8.2-5.5c4-1.1,6-3.3,5.5-7
				c-1.2-8.9-2.1-17.8-4.4-26.4c-2.4-8.7-1.5-16.1,3.4-23.7c6.8-10.3,13-20.9,19.2-31.6c0.9-1.6,1-4.7,0.1-6.2
				c-11.5-18.8-27.3-32.9-46.9-42.9c-3-1.5-5.1-1-7.5,1.3c-10.7,10-21.5,19.9-32.4,29.6c-1.4,1.2-4,2-5.8,1.7
				c-10.8-1.7-21.7-3.6-32.4-5.6c-5.6-1-7.9-2-8.6,5.6c-0.2,1.6-2.4,2.9-3.7,4.4c-1.6-1.4-3.3-2.7-4.6-4.3c-0.7-0.8-0.4-2.5-1.1-3.2
				c-1.1-1.1-2.9-2.6-4.2-2.4c-22.3,3.2-43,10.2-60.7,24.7c-3.7,3-4.5,5.6-2,9.7c1,1.6,1.3,4.8,0.4,6c-1.8,2.2-4.9,3.9-7.9,1.5
				c-3.6-2.9-5.6-1.6-7.9,1.8c-12.1,17.7-19.3,37-21.7,58.3c-0.6,4.9,0.6,7.8,4.8,10.3c5.9,3.5,5.9,4.9-0.4,8
				c-4.3,2.2-5.8,4.9-4.8,9.5c4.3,20,12.2,38.3,24.2,54.9c2.2,3,4.1,3.7,7.5,1.5c1.4-0.9,4.6-0.7,6,0.3c1.1,0.8,1.6,4.1,0.9,5.5
				c-2.1,4-1,6.9,2.4,8.9c7.3,4.5,14.4,10,22.3,13c12.2,4.6,25.1,7.5,37.8,11c7.4,2.1,7.4,2.1,11.3-4.2c2.1-3.4,4-3.6,6.4-0.3
				c1.1,1.4,1.8,3.3,3.1,4.5C502.6,1079.5,504.6,1080.7,505.6,1081.5z"/>
			<g>
				<path class="st1" d="M368,963.1c0.2-9.3,1.2-18.5,3.3-27.5c2-9,5.2-17.8,9.4-26.1c4.2-8.3,9.3-16.1,15.3-23.1
					c6.1-7,12.8-13.4,20.3-19c14.8-11.3,32.1-19.2,50.1-23.6c9.1-2.2,18.4-3.3,27.8-3.4c4.7,0,9.3,0.2,14,0.6c2.3,0.2,4.6,0.5,7,0.8
					s4.7,0.9,7,1.5l6.7,1.8c1.1,0.3,2.2,0.6,3.3,0.8l0.8,0.2c0.2,0,0.4,0.1,0.6,0.1c0.4,0,0.9,0,1.3,0c0.4,0,0.8-0.2,0.9-0.3
					c0.1,0,0,0,0.1-0.1l0.3-0.3l0.7-0.6l2.7-2.2l5.3-4.4c3.5-3,7-5.9,10.4-9l2.5-2.3c0.8-0.8,1.7-1.6,2.4-2.3
					c1.5-1.6,2.9-3.3,4.1-5.2c1.3-1.8,2.4-3.7,3.5-5.7l0.4-0.7l0.5-0.8c0.4-0.6,0.7-1.1,1.2-1.7c0.5-0.6,1-1.1,1.7-1.6
					s1.5-0.8,2.4-0.9c1.8-0.3,3.3,0.3,4.5,0.8l3.1,1.4l6.4,2.7c4.3,1.8,8.5,3.8,12.7,6.2c2.1,1.2,4.1,2.5,6,3.8s3.8,2.7,5.7,4.2
					c7.4,5.7,14.3,12.4,20,19.9c2.9,3.7,5.5,7.7,7.8,11.8c1.2,2.1,2.2,4.2,3.3,6.3c0.5,1.1,1,2.2,1.5,3.4c0.4,1.2,0.9,2.7,0.7,4.6
					c-0.1,0.9-0.4,1.8-0.8,2.5c-0.4,0.7-0.8,1.3-1.2,1.9c-0.9,1.1-1.7,1.9-2.6,2.8c-1.6,1.6-3.1,3.1-4.5,4.9
					c-2.9,3.4-5.4,7.1-7.8,11c-2.4,3.9-4.6,7.9-6.9,11.9c-1.1,2-2.3,4-3.5,6l-1.8,3c-0.5,0.8-0.9,1.7-1.2,2.6
					c-0.6,1.7-0.7,3.6-0.5,5.6c0.1,1,0.3,2,0.6,3l0.8,3.4c0.5,2.3,1.1,4.6,1.5,6.9l0.7,3.5l0.3,1.7l0.2,1.7
					c1.4,9.3,2.1,18.8,1.6,28.2s-2,18.9-4.6,28s-6.2,17.9-10.8,26.3l-1.7,3.1c-0.6,1-1.2,2-1.9,3l-1.9,3l-1,1.5l-1,1.4
					c-1.4,1.9-2.7,3.9-4.1,5.8l-2.2,2.8l-1.1,1.4l-1.2,1.3c-6.1,7.2-13,13.9-20.7,19.5s-16.1,10.3-24.9,14
					c-8.8,3.7-18.1,6.1-27.4,7.6c-9.4,1.4-18.8,1.9-28.3,1.5c-9.4-0.4-18.9-2-28-4.5c-18.2-5.2-34.9-14.8-49-27.2
					c-7-6.1-13.5-13-19-20.5c-5.6-7.5-10.2-15.7-13.8-24.2C370.9,1000.2,367.9,981.6,368,963.1z M368.7,963.1
					c0.1,9.2,0.9,18.4,2.7,27.4c1.8,9,4.6,17.8,8.4,26.2c7.6,16.7,19.5,31.2,33.7,42.6c7.1,5.7,14.7,10.8,22.7,14.9
					c8.1,4.1,16.6,7.3,25.3,9.5c17.5,4.4,35.9,4.7,53.6,1.7c8.9-1.5,17.6-3.8,25.8-7.3s16.1-7.9,23.3-13.2
					c7.2-5.4,13.7-11.5,19.6-18.3l1.1-1.3l1.1-1.3l2.1-2.6c1.4-1.8,2.6-3.6,4-5.5l1-1.4l0.9-1.4l1.8-2.8c0.6-1,1.3-1.9,1.8-2.9
					l1.7-2.9c4.4-7.8,8-16.1,10.5-24.7c2.6-8.6,4.1-17.5,4.7-26.5c0.6-9,0.1-18.1-1.2-27l-0.2-1.7l-0.3-1.7l-0.6-3.3
					c-0.3-2.2-0.9-4.4-1.4-6.7l-0.8-3.3c-0.3-1.2-0.6-2.5-0.7-3.8c-0.3-2.6-0.1-5.5,0.8-8.1c0.5-1.3,1.1-2.5,1.8-3.6l1.8-2.9
					c1.2-1.9,2.4-3.9,3.5-5.9c2.3-4,4.6-8,7.1-12s5.2-7.9,8.3-11.5c1.5-1.8,3.2-3.6,4.9-5.2c0.8-0.8,1.6-1.5,2.2-2.3
					c0.6-0.7,0.9-1.3,1-1.8s-0.1-1.3-0.4-2.2c-0.3-0.9-0.8-1.9-1.3-3c-1-2-2-4-3.1-6c-2.2-3.9-4.6-7.7-7.4-11.3
					c-5.4-7.2-11.9-13.6-19-19.2c-1.8-1.4-3.6-2.8-5.5-4.1s-3.7-2.6-5.6-3.7c-3.9-2.3-8-4.2-12.2-6.1l-6.3-2.8l-3.2-1.4
					c-0.9-0.4-1.6-0.6-2.2-0.5c-0.5,0.1-1,0.4-1.6,1.1c-0.3,0.3-0.5,0.7-0.8,1.1l-0.4,0.7l-0.4,0.8c-1.2,2.1-2.4,4.1-3.8,6.1
					c-1.4,2-2.9,3.8-4.6,5.6c-0.9,0.9-1.7,1.7-2.6,2.5l-2.6,2.4c-3.5,3.1-7,6.1-10.6,9l-5.4,4.4l-2.7,2.2l-0.7,0.5l-0.3,0.3
					c-0.1,0.1-0.4,0.3-0.6,0.4c-0.9,0.5-1.6,0.6-2.4,0.7c-0.7,0.1-1.4,0.1-2.1,0c-0.3,0-0.7-0.1-1.1-0.2l-0.9-0.2
					c-1.1-0.3-2.3-0.6-3.4-0.9l-6.6-1.9c-2.2-0.6-4.4-1.1-6.6-1.5c-2.2-0.3-4.5-0.7-6.8-0.9c-4.5-0.5-9.1-0.8-13.7-0.8
					c-9.1-0.1-18.3,0.8-27.2,2.9c-17.8,4-35,11.4-49.9,22.2c-7.4,5.4-14.2,11.6-20.4,18.5c-6.1,6.9-11.3,14.5-15.5,22.7
					s-7.4,16.9-9.4,25.9C369.9,944.7,368.8,953.9,368.7,963.1z"/>
				<path class="st1" d="M505.7,1081.2c2.4-0.4,4.8-0.7,7.2-1.1c1.2-0.2,2.4-0.4,3.6-0.7c1.2-0.2,2.4-0.5,3.6-0.8
					c4.8-1.2,9.5-2.7,14-4.6c9.1-3.8,17.6-9,25.4-15c2-1.5,3.9-3.1,5.8-4.7c0.9-0.8,1.8-1.6,2.4-2.5c0.3-0.4,0.4-0.9,0.4-1.3
					c0-0.5-0.1-1-0.3-1.6c-0.4-1.1-0.9-2.2-1.4-3.4l-0.4-0.9l-0.2-0.4l-0.2-0.5c-0.2-0.7-0.3-1.4-0.2-2.1c0.1-1.4,0.4-2.6,0.8-3.9
					c0.2-0.6,0.4-1.2,0.6-1.8l0.2-0.4c0,0,0,0,0.2-0.4c0.3-0.3,0.4-0.3,0.5-0.3c0.2-0.1,0.4-0.1,0.5-0.1c0.4,0,0.8,0,1.1,0
					c1.3,0.1,2.5,0.4,3.8,0.6l0.9,0.2c0.4,0.1,0.8,0.2,1.1,0.4c0.7,0.3,1.2,0.7,1.7,1c1,0.6,2,1.1,2.9,1.1s1.8-0.5,2.6-1.2
					c0.4-0.4,0.8-0.8,1.1-1.3l1.1-1.5c0.7-1,1.5-2,2.2-3s1.4-2,2.1-3c0.7-1,1.3-2.1,2-3.1c5.1-8.4,9.2-17.4,11.9-26.8
					c1.3-4.7,2.3-9.5,3-14.4c0.1-0.6,0.2-1.2,0.2-1.8c0.1-0.6,0.1-1.1,0-1.6c-0.1-1-0.4-1.8-1.1-2.4c-0.6-0.6-1.6-1.1-2.7-1.5
					c-1-0.3-2.2-0.5-3.5-0.7c-0.7-0.2-1.3-0.3-2.1-0.6c-0.7-0.3-1.4-0.8-2-1.4c-0.3-0.3-0.5-0.7-0.7-1.1c-0.2-0.4-0.3-0.8-0.4-1.2
					c-0.2-0.8-0.2-1.5-0.2-2.3c0-0.7,0.1-1.5,0.5-2.3c0.3-0.8,0.8-1.5,1.5-2.1c1.4-1.1,2.9-1.4,4.2-1.7c1.3-0.2,2.5-0.3,3.5-0.7
					c1.1-0.3,2-0.8,2.8-1.4c0.7-0.6,1.1-1.3,1.3-2.2c0.1-0.4,0.1-0.9,0-1.4c0-0.2-0.1-0.6-0.1-0.9l-0.1-0.9
					c-0.7-4.9-1.3-9.8-2.1-14.7c-0.4-2.4-0.9-4.8-1.5-7.2c-0.3-1.2-0.6-2.3-0.9-3.6c-0.3-1.2-0.6-2.5-0.8-3.8
					c-0.4-2.6-0.5-5.3-0.2-7.9c0.3-2.7,1-5.3,2.1-7.7c0.5-1.2,1.1-2.4,1.8-3.5l1-1.7l1-1.6c1.3-2.1,2.6-4.2,4-6.3
					c2.6-4.2,5.1-8.4,7.6-12.7l3.7-6.4l1.9-3.2l0.5-0.8l0.2-0.4c0-0.1,0.1-0.1,0.1-0.2c0.1-0.3,0.2-0.8,0.3-1.2c0.1-0.9,0-2-0.3-2.5
					V870c0,0,0,0-0.1-0.1l-0.2-0.4l-0.5-0.8l-1-1.5c-1.3-2-2.7-4-4.2-6c-2.9-3.9-6.1-7.6-9.5-11c-6.8-6.9-14.6-12.9-23-17.9
					c-2.1-1.2-4.2-2.4-6.4-3.5l-0.8-0.4c-0.3-0.1-0.6-0.3-0.8-0.4c-0.4-0.2-0.9-0.4-1.2-0.4c-0.7-0.1-1.2-0.1-1.9,0.3
					c-0.3,0.2-0.7,0.5-1.1,0.8l-1.3,1.2l-2.7,2.5l-5.5,5.1l-21.9,20.2l-0.7,0.6l-0.3,0.3l-0.2,0.2l-0.3,0.2c-0.8,0.6-1.5,1-2.3,1.3
					c-1.5,0.6-3,1-4.9,0.9c-0.2,0-0.5-0.1-0.7-0.1l-0.5-0.1l-0.9-0.2l-1.8-0.3l-3.7-0.6l-14.7-2.5l-14.4-2.4c-0.5-0.1-0.8,0-0.9,0
					s0.2-0.1,0.1,0s-0.5,1.1-0.6,2.2c0,0.2-0.1,0.5-0.1,0.8v0.4v0.2c0,0.2-0.1,0.4-0.1,0.6c-0.4,1.5-1.1,2.3-1.7,3
					c-0.6,0.6-1.1,1.1-1.5,1.5s-0.8,0.8-1.1,1.1l-1.9,2.2l-2.3-2l-2.4-2c-0.4-0.4-0.9-0.8-1.3-1.2c-0.2-0.2-0.4-0.4-0.7-0.7
					l-0.3-0.4l-0.2-0.2c-0.1-0.1-0.1-0.1-0.2-0.3c-0.5-0.7-0.7-1.3-0.9-1.8c-0.1-0.5-0.2-0.8-0.2-1.1s-0.1-0.5-0.1-0.6s0,0,0.2,0.3
					c0.1,0.1,0.1,0.2,0.2,0.2l-0.1-0.1l-0.2-0.2c-0.2-0.1-0.3-0.3-0.5-0.4c-0.3-0.3-0.6-0.5-0.9-0.6c-0.2-0.1-0.5-0.2-0.2-0.1
					c0.1,0,0.2,0,0.3,0l-0.4,0.1l-0.8,0.1l-3.1,0.5c-2,0.4-4.1,0.7-6.1,1.2c-8.1,1.7-16.1,4.1-23.7,7.4c-3.8,1.6-7.5,3.4-11.1,5.5
					s-7,4.3-10.3,6.8c-0.8,0.6-1.6,1.3-2.4,1.9l-1.2,0.9c-0.3,0.3-0.7,0.6-0.9,0.8c-0.6,0.6-0.9,1.1-1,1.4c-0.1,0.3-0.1,0.5,0,1
					c0.1,0.3,0.2,0.6,0.3,0.9c0.2,0.4,0.3,0.6,0.6,1.1c0.5,0.9,0.7,1.6,0.9,2.3c0.2,0.7,0.3,1.4,0.4,2.2c0.1,0.7,0.1,1.5-0.1,2.4
					c-0.1,0.5-0.2,1-0.4,1.5c-0.2,0.3-0.2,0.6-0.5,1c-0.1,0.2-0.2,0.3-0.4,0.5l-0.2,0.2c-0.9,1.1-2.1,2.1-3.6,2.8
					c-0.7,0.4-1.6,0.7-2.5,0.8c-0.9,0.2-1.9,0.1-2.9,0c-0.9-0.2-1.8-0.6-2.6-1c-0.4-0.2-0.7-0.5-1-0.7l-0.5-0.4
					c-0.3-0.2-0.5-0.4-0.7-0.4c-0.2-0.1-0.2-0.1-0.2-0.1c0.1,0,0.2,0,0.2,0s-0.2,0.1-0.4,0.3c-0.8,0.8-2.1,2.9-3.2,4.6
					c-1.1,1.8-2.2,3.5-3.2,5.3c-4.2,7.1-7.6,14.7-10.3,22.5c-2.6,7.8-4.5,15.9-5.5,24.1l-0.2,1.5c-0.1,0.5-0.1,0.9-0.1,1.3
					c0,0.8,0,1.6,0.1,2.2c0.1,0.6,0.3,1.1,0.7,1.6c0.3,0.5,0.8,1,1.5,1.4c0.2,0.1,0.3,0.2,0.5,0.3l0.6,0.4c0.5,0.3,1,0.6,1.5,0.9
					c0.2,0.2,0.5,0.3,0.8,0.5s0.5,0.4,0.8,0.6c0.3,0.2,0.5,0.4,0.8,0.8l0.4,0.5c0.2,0.2,0.3,0.4,0.5,0.6l0.2,0.3
					c0.1,0.1,0.2,0.3,0.2,0.5c0.1,0.4,0.3,0.6,0.4,1.1c0.1,0.4,0.1,0.9,0.1,1.3c0,0.4-0.1,0.9-0.3,1.3c-0.3,0.7-0.7,1.4-1,1.7
					c-0.2,0.2-0.4,0.4-0.5,0.6l-0.5,0.4c-1.2,1-2.3,1.5-3.3,2.1l-1.4,0.7c-0.4,0.2-0.7,0.4-1.1,0.6c-0.6,0.4-1.1,0.9-1.4,1.3
					c-0.3,0.4-0.4,0.8-0.5,1.4c-0.1,0.6,0,1.4,0.2,2.2c0.8,4,1.9,8.1,3,12.1c2.3,8,5.4,15.8,9,23.2c1.8,3.7,3.9,7.4,6,10.9
					c1.1,1.8,2.2,3.5,3.4,5.3l1.8,2.6c0.5,0.7,1.1,1.4,1.4,1.6c0.2,0.1,0.3,0.2,0.4,0.2s0.3,0,0.5,0c0.3-0.1,0.6-0.2,0.9-0.4
					c0.2-0.1,0.4-0.2,0.5-0.3l0.2-0.1l0.3-0.2c0.2-0.1,0.4-0.2,0.7-0.3c1.7-0.5,3-0.5,4.4-0.3c0.7,0.1,1.4,0.3,2.1,0.6
					c0.4,0.2,0.8,0.4,1.2,0.6c0.6,0.5,1,1,1.2,1.4c0.5,0.8,0.7,1.5,0.8,2.2c0.1,0.7,0.2,1.4,0.2,2.1s-0.1,1.5-0.4,2.4l-0.2,0.4
					l-0.1,0.3l-0.1,0.3c-0.1,0.2-0.2,0.4-0.3,0.6c-0.3,0.7-0.5,1.4-0.4,2c0,0.6,0.3,1.1,0.7,1.6c0.2,0.3,0.5,0.5,0.8,0.8
					c0.2,0.1,0.3,0.3,0.5,0.4l0.3,0.2l0.3,0.2l2.7,1.8l5.3,3.6c3.5,2.3,7,4.6,10.7,6.4c0.9,0.4,1.9,0.8,2.8,1.2c1,0.4,2,0.8,2.9,1.1
					c2,0.7,4,1.4,6,2.1c4,1.3,8.1,2.5,12.1,3.7l12.2,3.5l6.1,1.8c1,0.3,2,0.6,2.9,0.7s1.6,0,2.2-0.5c0.6-0.6,1.2-1.4,1.8-2.3
					c0.6-0.9,1.1-1.7,1.8-2.7c0.3-0.5,0.7-0.9,1.2-1.3s1-0.8,1.7-1s1.5,0,2,0.4c0.6,0.3,1,0.7,1.4,1.1c0.8,0.8,1.4,1.8,1.9,2.7
					c0.5,0.9,1,1.9,1.6,2.6c0.6,0.8,1.4,1.5,2.2,2.1c0.4,0.3,0.8,0.7,1.2,1l0.6,0.5C505.4,1080.9,505.7,1081.1,505.7,1081.2z
					 M505.5,1081.8c-0.4-0.2-0.5-0.4-0.8-0.5l-0.7-0.4c-0.4-0.3-0.9-0.6-1.3-0.9c-0.9-0.6-1.7-1.3-2.5-2.1c-0.8-0.9-1.3-1.8-1.9-2.7
					c-0.5-0.9-1.1-1.7-1.9-2.4c-0.7-0.7-1.5-1.2-2.1-1s-1.3,0.9-1.9,1.7c-0.5,0.8-1.1,1.8-1.6,2.7c-0.6,0.9-1.1,1.9-2.1,2.7
					c-0.5,0.4-1.1,0.8-1.8,1c-0.7,0.2-1.3,0.2-1.9,0.2c-1.2-0.1-2.2-0.4-3.3-0.6l-6.2-1.6l-12.4-3c-4.1-1-8.3-2.1-12.4-3.3
					c-2.1-0.6-4.1-1.2-6.1-1.9c-1-0.3-2-0.7-3-1.1s-2.1-0.8-3.1-1.2c-4-1.8-7.8-4-11.4-6.3l-5.4-3.4l-2.7-1.7l-0.3-0.2l-0.4-0.3
					c-0.3-0.2-0.5-0.4-0.8-0.6c-0.5-0.4-1-0.9-1.5-1.4c-0.9-1.1-1.7-2.5-1.9-4.1c-0.2-1.6,0.1-3,0.6-4.2c0.1-0.3,0.2-0.6,0.4-0.9
					l0.2-0.4l0.1-0.1l0,0l0,0c0-0.1,0.1-0.4,0.1-0.7c0-0.3-0.1-0.7-0.1-1.1c-0.1-0.3-0.2-0.7-0.3-0.7c0-0.1,0,0.1,0.2,0.2
					c0,0-0.1-0.1-0.2-0.1c-0.2-0.1-0.6-0.2-0.9-0.2c-0.7-0.1-1.5,0-1.9,0.1h-0.1l0,0l0,0l-0.1,0.1c-0.3,0.2-0.5,0.3-0.8,0.5
					c-0.6,0.3-1.2,0.6-2,0.9c-0.8,0.2-1.7,0.4-2.6,0.3c-1-0.1-1.9-0.5-2.6-0.9c-1.5-0.9-2.3-2-3-2.9l-1.9-2.6
					c-1.2-1.8-2.5-3.6-3.6-5.4c-2.3-3.6-4.5-7.4-6.5-11.2c-4-7.7-7.3-15.7-9.9-24c-1.3-4.2-2.4-8.3-3.3-12.6
					c-0.3-1.2-0.4-2.6-0.3-4.1s0.6-3.2,1.6-4.5c0.9-1.4,2.1-2.4,3.2-3.1c0.6-0.4,1.1-0.7,1.7-1l1.4-0.7c0.8-0.4,1.7-1,2.1-1.3
					l0.1-0.1c0.1,0,0,0,0,0c0.1,0-0.1,0.2-0.2,0.4s-0.1,0.4-0.1,0.5c0,0.2,0,0.4,0,0.5c0.1,0.2,0,0.2,0.1,0.3l0.1,0.1l0,0l0,0
					l-0.1-0.1c0-0.1-0.2-0.2-0.3-0.3c-0.1-0.1-0.3-0.2-0.5-0.4c-0.2-0.1-0.3-0.2-0.5-0.4c-0.4-0.3-0.8-0.5-1.2-0.8l-1-0.5
					c-0.3-0.2-0.5-0.3-0.8-0.5c-1.1-0.8-2.2-1.7-3.1-3c-0.9-1.2-1.6-2.7-1.9-4.2c-0.6-2.9-0.2-5.5,0-7.5c1.1-8.6,3-17.2,5.7-25.5
					c2.8-8.3,6.4-16.3,10.7-23.9c1.1-1.9,2.3-3.7,3.4-5.6l1.8-2.7c0.6-0.9,1.3-2,2.4-3c0.6-0.5,1.2-1.1,2.2-1.6
					c0.9-0.5,2.1-0.8,3.3-0.7c1.2,0,2.1,0.4,2.9,0.7c0.8,0.4,1.4,0.8,2,1.2l0.7,0.6c0.1,0.1,0.2,0.2,0.3,0.2
					c0.2,0.1,0.3,0.1,0.4,0.2c0.2,0,0.4,0,0.8-0.2s0.9-0.6,1.4-1.1l0.1-0.1c-0.1,0.1-0.1,0.1-0.1,0.2c-0.1,0.2-0.1,0.2-0.1,0.3
					s0,0.1,0,0s0-0.4,0-0.7c0-0.6-0.3-1.4-0.4-1.6c-0.2-0.4-0.6-1.1-0.9-1.7c-0.3-0.6-0.6-1.3-0.8-2.1c-0.4-1.5-0.4-3.6,0.3-5.3
					c0.7-1.7,1.7-2.9,2.6-3.8c0.5-0.5,1-0.9,1.4-1.3l1.3-1c0.9-0.7,1.7-1.4,2.6-2c3.5-2.6,7.3-4.9,11.1-7.1c3.8-2.1,7.8-4,11.8-5.7
					c8.1-3.3,16.5-5.8,25-7.5c2.1-0.4,4.3-0.8,6.4-1.2l3.2-0.5l0.8-0.1l0.4-0.1c0.4,0,0.8-0.1,1.1,0c1.4,0.2,2.1,0.6,2.8,1
					c0.7,0.4,1.2,0.8,1.7,1.2c0.2,0.2,0.5,0.4,0.7,0.6l0.3,0.3l0.2,0.2c0.2,0.2,0.3,0.4,0.5,0.6c0.5,0.7,0.7,1.3,0.8,1.8
					c0.1,0.4,0.1,0.8,0.2,1c0,0.2,0.1,0.4,0.1,0.5s0-0.1-0.2-0.3c-0.1-0.1,0,0,0,0l0.1,0.1l0.2,0.2l0.5,0.5c0.3,0.3,0.7,0.6,1,1
					c0.7,0.7,1.6,1.3,2.4,2.1l-4.3,0.3c0.6-0.6,1.1-1.1,1.6-1.5s0.9-0.8,1.2-1.1c0.3-0.3,0.3-0.5,0.2-0.2v0.1v-0.3l0.1-0.5
					c0-0.3,0.1-0.7,0.1-1c0.1-0.4,0.1-0.7,0.2-1.1c0.1-0.4,0.2-0.7,0.3-1.1c0.3-0.8,0.6-1.6,1.3-2.6c0.3-0.5,0.8-0.9,1.4-1.3
					c0.3-0.2,0.6-0.3,0.9-0.5c0.3-0.1,0.6-0.2,0.9-0.3c1.1-0.3,2.1-0.2,2.8-0.2c1.6,0.2,2.7,0.5,3.9,0.7l3.6,0.7l7.3,1.3l14.6,2.6
					l7.1,1.3c0.6,0.1,1.6-0.1,2.4-0.4c0.4-0.2,0.7-0.4,0.9-0.5l0.1-0.1l0.2-0.2l0.3-0.3l0.7-0.6l22-19.9l5.5-5l2.8-2.5l1.4-1.3
					c0.6-0.5,1.2-1,1.9-1.4s1.6-0.8,2.6-0.9c0.9-0.2,1.9-0.1,2.8,0.1c0.9,0.2,1.6,0.5,2.3,0.8c0.4,0.2,0.6,0.3,0.9,0.5l0.8,0.4
					c2.2,1.2,4.4,2.4,6.6,3.7c8.7,5.2,16.7,11.5,23.7,18.8c3.5,3.6,6.8,7.5,9.8,11.6c1.5,2,2.9,4.1,4.3,6.2l1,1.6l0.5,0.8l0.3,0.4
					c0.1,0.1,0.2,0.4,0.3,0.6c0.7,1.8,0.8,3.3,0.6,4.8c-0.1,0.8-0.3,1.5-0.6,2.4c-0.1,0.2-0.2,0.4-0.3,0.6l-0.2,0.4l-0.5,0.8
					l-1.9,3.2l-3.8,6.4c-2.6,4.3-5.1,8.5-7.8,12.7c-1.3,2.1-2.7,4.2-4,6.3l-1,1.6l-0.9,1.5c-0.6,1-1.1,2-1.6,3.1
					c-1.9,4.2-2.4,8.9-1.7,13.5c0.2,1.2,0.4,2.3,0.7,3.5c0.3,1.1,0.6,2.4,0.9,3.6c0.6,2.5,1,4.9,1.4,7.4c0.8,5,1.4,9.9,2,14.8
					l0.1,0.9c0,0.3,0.1,0.6,0.1,1c0.1,0.7,0.1,1.5-0.1,2.3c-0.2,1.6-1.2,3.1-2.5,4.1c-1.2,1-2.6,1.5-3.9,1.9
					c-1.4,0.4-2.7,0.5-3.8,0.7s-2.1,0.5-2.7,1c-0.6,0.4-0.8,1.2-0.9,2.2c0,1,0.1,1.9,0.6,2.4c0.4,0.6,1.4,0.9,2.5,1.2
					s2.4,0.4,3.8,0.9c1.3,0.5,2.6,1.1,3.8,2.2c1.2,1.1,1.8,2.8,1.9,4.2c0.1,0.7,0,1.5-0.1,2.1c-0.1,0.7-0.2,1.3-0.3,1.9
					c-0.8,5-1.9,9.9-3.3,14.7c-2.9,9.6-7.1,18.8-12.5,27.3c-0.7,1.1-1.3,2.1-2.1,3.1c-0.7,1-1.4,2.1-2.1,3.1c-0.7,1-1.5,2-2.2,3
					l-1.1,1.5c-0.4,0.5-0.8,1-1.4,1.5c-1,0.9-2.4,1.7-4,1.7s-2.9-0.7-4-1.5c-0.5-0.4-1-0.7-1.4-0.9c-0.2-0.1-0.4-0.2-0.6-0.2
					l-0.9-0.2c-1.2-0.2-2.4-0.5-3.6-0.6c-0.3,0-0.6,0-0.8,0c0,0-0.1,0,0,0c0,0,0.1,0,0.3-0.2c0.2-0.3,0.1-0.2,0.1-0.2l-0.2,0.4
					c-0.2,0.6-0.4,1.2-0.6,1.7c-0.4,1.1-0.7,2.3-0.7,3.4c0,0.6,0,1.1,0.1,1.6l0.1,0.3l0.2,0.4l0.4,0.9c0.5,1.2,1,2.3,1.4,3.6
					c0.2,0.6,0.3,1.3,0.4,2.1c0,0.8-0.3,1.5-0.7,2.2c-0.8,1.2-1.8,2-2.8,2.8c-1.9,1.6-3.9,3.1-5.9,4.6c-8,6-16.6,11.1-25.9,14.9
					c-4.6,1.9-9.4,3.4-14.2,4.5C515.5,1080.7,510.6,1081.3,505.5,1081.8z"/>
			</g>
		</g>
		<g>
			<path class="st1" d="M568,890.6c0.5,5.6-2.6,10.3-6.6,14.6c-21.9,23.5-43.8,47-65.8,70.5c-3.5,3.7-9.3,4.1-13.5,0.2
				c-7.1-6.7-13.9-13.9-20.5-21.1c-3.4-3.7-6.5-7.6-9.2-11.8c-1.6-2.6-2.8-5.8-3-8.8c-0.6-7.2,1.8-8.9,9-7.1
				c8.8,2.2,15.3,7.9,21.1,14.4c10.4,11.6,10.3,11.8,20.7,0.5c15-16.3,29.9-32.7,45-48.9c4.3-4.6,9.2-8.6,16-9.4
				C567.4,883.1,568.6,884,568,890.6z"/>
			<path class="st1" d="M568.4,890.6c0.1,1.8-0.1,3.7-0.7,5.5c-0.6,1.8-1.5,3.4-2.5,4.9c-2.1,3.1-4.7,5.6-7.1,8.3
				c-4.9,5.3-9.7,10.7-14.5,16.2c-9.6,10.9-19.2,21.7-28.9,32.5L500,974l-1.8,2l-0.9,1c-0.4,0.4-0.7,0.8-1.2,1.1
				c-1.7,1.4-3.8,2.4-6.1,2.6c-2.2,0.2-4.5-0.2-6.5-1.3c-1-0.5-1.9-1.2-2.7-1.9l-2-1.9c-5.3-5-10.4-10.2-15.4-15.5l-3.8-4
				c-1.3-1.4-2.5-2.8-3.7-4.2s-2.3-2.9-3.4-4.4c-0.5-0.8-1.1-1.5-1.6-2.3c-0.5-0.7-1.1-1.6-1.6-2.6c-1-1.8-1.7-3.7-2.2-5.8
				c-0.2-1-0.4-2.1-0.5-3.1c0-0.5-0.1-1-0.1-1.5s0-1.1,0-1.6c0.1-1.1,0.2-2.4,1-3.8c0.4-0.7,0.9-1.4,1.6-1.9
				c0.3-0.3,0.7-0.5,1.1-0.7s0.7-0.3,1.1-0.5c1.5-0.5,2.7-0.5,3.9-0.4c1.1,0.1,2.2,0.2,3.1,0.5c3.9,0.8,7.7,2.3,11.1,4.3
				s6.4,4.5,9.2,7.1c1.4,1.3,2.7,2.7,3.9,4.1l3.6,3.9c1.2,1.2,2.4,2.5,3.4,3.1c0.5,0.3,0.7,0.3,0.7,0.3c-0.1,0,0,0,0.5-0.2
				c0.4-0.3,1-0.7,1.6-1.2s1.2-1.1,1.8-1.7c1.2-1.2,2.4-2.6,3.7-3.9l7.4-7.9c10-10.5,20.3-20.8,30.7-30.9l7.8-7.6
				c2.6-2.6,5.4-5.1,8.6-7c1.6-0.9,3.4-1.7,5.2-2.2s3.7-0.7,5.5-0.8c0.9,0,1.9-0.1,2.8,0.1c0.2,0,0.5,0.1,0.7,0.2
				c0.2,0.1,0.5,0.2,0.7,0.4c0.4,0.3,0.8,0.8,1,1.2c0.4,1,0.4,1.9,0.4,2.8C568.5,888.8,568.4,889.8,568.4,890.6z M567.7,890.6
				c0-0.9,0.1-1.8,0.1-2.7s-0.1-1.8-0.4-2.5c-0.3-0.7-1-1.1-1.8-1.2c-0.8-0.1-1.7-0.1-2.6,0c-3.6,0.3-6.9,1.5-9.8,3.5
				c-2.9,2-5.3,4.6-7.6,7.3l-7,8.4c-9.2,11.2-18.6,22.3-28.3,33.1l-7.3,8.1c-1.2,1.3-2.5,2.7-3.8,4.1c-0.7,0.7-1.4,1.4-2.1,2.1
				c-0.8,0.7-1.6,1.4-2.7,2.1c-0.6,0.3-1.2,0.7-2,0.9c-0.8,0.3-1.7,0.4-2.6,0.4c-1.9-0.1-3.3-0.9-4.3-1.6c-1-0.7-1.8-1.4-2.6-2.1
				c-0.7-0.7-1.4-1.4-2-2.1c-1.3-1.4-2.5-2.8-3.7-4.1s-2.3-2.6-3.5-3.8c-2.4-2.5-5-4.7-7.7-6.4c-2.8-1.8-5.8-3.1-9-3.9
				c-0.8-0.2-1.5-0.3-2.2-0.4c-0.7-0.1-1.2,0-1.5,0.1s-0.2,0-0.4,0.2c-0.1,0.2-0.3,0.8-0.4,1.5c0,0.3-0.1,0.7-0.1,1.1
				c0,0.4,0,0.8,0,1.2c0,0.8,0.1,1.5,0.3,2.3c0.3,1.5,0.8,3,1.5,4.4c0.7,1.3,1.7,2.9,2.7,4.3c1,1.4,2,2.8,3.1,4.2s2.2,2.7,3.4,4
				l3.6,4c4.9,5.3,9.8,10.6,14.9,15.7l1.9,1.9c0.5,0.5,1.1,0.9,1.7,1.3c1.2,0.7,2.6,1,4,0.9s2.7-0.6,3.8-1.5
				c0.3-0.2,0.5-0.5,0.8-0.7l0.9-1l1.9-2l15-15.7c10-10.5,20.2-20.8,30.4-31.1c5.1-5.2,10.1-10.4,15.1-15.6c2.4-2.7,5.1-5.2,7.1-8.1
				C566.7,897.7,568,894.2,567.7,890.6z"/>
		</g>
	</g>
</g>
</svg>
